<svg xmlns="http://www.w3.org/2000/svg" width="850" height="224" viewBox="0 0 850 224" role="img">
  <style>
    text { font-family: ui-monospace, SFMono-Regular, Menlo, Monaco, Consolas, "Liberation Mono", monospace; }
    .title { font-size: 20px; font-weight: 700; fill: #00e0e0; }
    .label { font-size: 13px; fill: #9aa7a5; }
    .value { font-size: 24px; font-weight: 700; fill: #e0e0e0; }
    .small { font-size: 11px; fill: #9aa7a5; }
  </style>
  <rect width="100%" height="100%" rx="14" fill="#1e1e1e"/>
  <rect x="1" y="1" width="848" height="222" rx="13" fill="none" stroke="#294149"/>
  <rect x="0" y="0" width="850" height="34" rx="14" fill="#121212"/>
  <rect x="0" y="20" width="850" height="14" fill="#121212"/>
  <circle cx="18" cy="17" r="5" fill="#c2a8ff"/>
  <circle cx="34" cy="17" r="5" fill="#00e0e0"/>
  <circle cx="50" cy="17" r="5" fill="#00c8c8"/>
  
    <defs>
      <linearGradient id="scan" x1="0" x2="1">
        <stop offset="0" stop-color="#00e0e0" stop-opacity="0"/>
        <stop offset="0.5" stop-color="#00e0e0" stop-opacity="0.35"/>
        <stop offset="1" stop-color="#00e0e0" stop-opacity="0"/>
      </linearGradient>
      <filter id="glow" x="-50%" y="-50%" width="200%" height="200%">
        <feGaussianBlur stdDeviation="3" result="blur"/>
        <feMerge><feMergeNode in="blur"/><feMergeNode in="SourceGraphic"/></feMerge>
      </filter>
    </defs>
    <text class="title" x="24" y="63">contribution trace</text>
    <text class="label" text-anchor="end" x="826" y="62">2325 events in the last year</text>
    <text class="small" x="48" y="103">Mon</text>
    <text class="small" x="48" y="142">Thu</text>
    <text class="small" x="48" y="181">Sun</text>
    <text class="small" x="91" y="79">Aug</text>
<text class="small" x="156" y="79">Sept</text>
<text class="small" x="208" y="79">Oct</text>
<text class="small" x="260" y="79">Nov</text>
<text class="small" x="325" y="79">Dec</text>
<text class="small" x="377" y="79">Jan</text>
<text class="small" x="429" y="79">Feb</text>
<text class="small" x="481" y="79">Mar</text>
<text class="small" x="546" y="79">Apr</text>
<text class="small" x="598" y="79">May</text>
<text class="small" x="663" y="79">Jun</text>
<text class="small" x="715" y="79">Jul</text>
    <rect x="91" y="94" width="10" height="10" rx="2" fill="#252525"><title>2025-08-03: 0 contributions</title></rect>
<rect x="91" y="107" width="10" height="10" rx="2" fill="#252525"><title>2025-08-04: 0 contributions</title></rect>
<rect x="91" y="120" width="10" height="10" rx="2" fill="#252525"><title>2025-08-05: 0 contributions</title></rect>
<rect x="91" y="133" width="10" height="10" rx="2" fill="#252525"><title>2025-08-06: 0 contributions</title></rect>
<rect x="91" y="146" width="10" height="10" rx="2" fill="#252525"><title>2025-08-07: 0 contributions</title></rect>
<rect x="91" y="159" width="10" height="10" rx="2" fill="#252525"><title>2025-08-08: 0 contributions</title></rect>
<rect x="91" y="172" width="10" height="10" rx="2" fill="#252525"><title>2025-08-09: 0 contributions</title></rect>
<rect x="104" y="94" width="10" height="10" rx="2" fill="#252525"><title>2025-08-10: 0 contributions</title></rect>
<rect x="104" y="107" width="10" height="10" rx="2" fill="#252525"><title>2025-08-11: 0 contributions</title></rect>
<rect x="104" y="120" width="10" height="10" rx="2" fill="#252525"><title>2025-08-12: 0 contributions</title></rect>
<rect x="104" y="133" width="10" height="10" rx="2" fill="#252525"><title>2025-08-13: 0 contributions</title></rect>
<rect x="104" y="146" width="10" height="10" rx="2" fill="#252525"><title>2025-08-14: 0 contributions</title></rect>
<rect x="104" y="159" width="10" height="10" rx="2" fill="#252525"><title>2025-08-15: 0 contributions</title></rect>
<rect x="104" y="172" width="10" height="10" rx="2" fill="#252525"><title>2025-08-16: 0 contributions</title></rect>
<rect x="117" y="94" width="10" height="10" rx="2" fill="#252525"><title>2025-08-17: 0 contributions</title></rect>
<rect x="117" y="107" width="10" height="10" rx="2" fill="#252525"><title>2025-08-18: 0 contributions</title></rect>
<rect x="117" y="120" width="10" height="10" rx="2" fill="#252525"><title>2025-08-19: 0 contributions</title></rect>
<rect x="117" y="133" width="10" height="10" rx="2" fill="#252525"><title>2025-08-20: 0 contributions</title></rect>
<rect x="117" y="146" width="10" height="10" rx="2" fill="#252525"><title>2025-08-21: 0 contributions</title></rect>
<rect x="117" y="159" width="10" height="10" rx="2" fill="#252525"><title>2025-08-22: 0 contributions</title></rect>
<rect x="117" y="172" width="10" height="10" rx="2" fill="#252525"><title>2025-08-23: 0 contributions</title></rect>
<rect x="130" y="94" width="10" height="10" rx="2" fill="#252525"><title>2025-08-24: 0 contributions</title></rect>
<rect x="130" y="107" width="10" height="10" rx="2" fill="#252525"><title>2025-08-25: 0 contributions</title></rect>
<rect x="130" y="120" width="10" height="10" rx="2" fill="#252525"><title>2025-08-26: 0 contributions</title></rect>
<rect x="130" y="133" width="10" height="10" rx="2" fill="#252525"><title>2025-08-27: 0 contributions</title></rect>
<rect x="130" y="146" width="10" height="10" rx="2" fill="#252525"><title>2025-08-28: 0 contributions</title></rect>
<rect x="130" y="159" width="10" height="10" rx="2" fill="#294149"><title>2025-08-29: 3 contributions</title></rect>
<rect x="130" y="172" width="10" height="10" rx="2" fill="#252525"><title>2025-08-30: 0 contributions</title></rect>
<rect x="143" y="94" width="10" height="10" rx="2" fill="#252525"><title>2025-08-31: 0 contributions</title></rect>
<rect x="143" y="107" width="10" height="10" rx="2" fill="#252525"><title>2025-09-01: 0 contributions</title></rect>
<rect x="143" y="120" width="10" height="10" rx="2" fill="#252525"><title>2025-09-02: 0 contributions</title></rect>
<rect x="143" y="133" width="10" height="10" rx="2" fill="#252525"><title>2025-09-03: 0 contributions</title></rect>
<rect x="143" y="146" width="10" height="10" rx="2" fill="#252525"><title>2025-09-04: 0 contributions</title></rect>
<rect x="143" y="159" width="10" height="10" rx="2" fill="#252525"><title>2025-09-05: 0 contributions</title></rect>
<rect x="143" y="172" width="10" height="10" rx="2" fill="#252525"><title>2025-09-06: 0 contributions</title></rect>
<rect x="156" y="94" width="10" height="10" rx="2" fill="#252525"><title>2025-09-07: 0 contributions</title></rect>
<rect x="156" y="107" width="10" height="10" rx="2" fill="#294149"><title>2025-09-08: 1 contributions</title></rect>
<rect x="156" y="120" width="10" height="10" rx="2" fill="#252525"><title>2025-09-09: 0 contributions</title></rect>
<rect x="156" y="133" width="10" height="10" rx="2" fill="#252525"><title>2025-09-10: 0 contributions</title></rect>
<rect x="156" y="146" width="10" height="10" rx="2" fill="#252525"><title>2025-09-11: 0 contributions</title></rect>
<rect x="156" y="159" width="10" height="10" rx="2" fill="#252525"><title>2025-09-12: 0 contributions</title></rect>
<rect x="156" y="172" width="10" height="10" rx="2" fill="#252525"><title>2025-09-13: 0 contributions</title></rect>
<rect x="169" y="94" width="10" height="10" rx="2" fill="#252525"><title>2025-09-14: 0 contributions</title></rect>
<rect x="169" y="107" width="10" height="10" rx="2" fill="#252525"><title>2025-09-15: 0 contributions</title></rect>
<rect x="169" y="120" width="10" height="10" rx="2" fill="#252525"><title>2025-09-16: 0 contributions</title></rect>
<rect x="169" y="133" width="10" height="10" rx="2" fill="#252525"><title>2025-09-17: 0 contributions</title></rect>
<rect x="169" y="146" width="10" height="10" rx="2" fill="#252525"><title>2025-09-18: 0 contributions</title></rect>
<rect x="169" y="159" width="10" height="10" rx="2" fill="#252525"><title>2025-09-19: 0 contributions</title></rect>
<rect x="169" y="172" width="10" height="10" rx="2" fill="#252525"><title>2025-09-20: 0 contributions</title></rect>
<rect x="182" y="94" width="10" height="10" rx="2" fill="#252525"><title>2025-09-21: 0 contributions</title></rect>
<rect x="182" y="107" width="10" height="10" rx="2" fill="#252525"><title>2025-09-22: 0 contributions</title></rect>
<rect x="182" y="120" width="10" height="10" rx="2" fill="#294149"><title>2025-09-23: 33 contributions</title></rect>
<rect x="182" y="133" width="10" height="10" rx="2" fill="#294149"><title>2025-09-24: 40 contributions</title></rect>
<rect x="182" y="146" width="10" height="10" rx="2" fill="#294149"><title>2025-09-25: 2 contributions</title></rect>
<rect x="182" y="159" width="10" height="10" rx="2" fill="#252525"><title>2025-09-26: 0 contributions</title></rect>
<rect x="182" y="172" width="10" height="10" rx="2" fill="#294149"><title>2025-09-27: 2 contributions</title></rect>
<rect x="195" y="94" width="10" height="10" rx="2" fill="#252525"><title>2025-09-28: 0 contributions</title></rect>
<rect x="195" y="107" width="10" height="10" rx="2" fill="#294149"><title>2025-09-29: 2 contributions</title></rect>
<rect x="195" y="120" width="10" height="10" rx="2" fill="#294149"><title>2025-09-30: 28 contributions</title></rect>
<rect x="195" y="133" width="10" height="10" rx="2" fill="#294149"><title>2025-10-01: 23 contributions</title></rect>
<rect x="195" y="146" width="10" height="10" rx="2" fill="#294149"><title>2025-10-02: 3 contributions</title></rect>
<rect x="195" y="159" width="10" height="10" rx="2" fill="#252525"><title>2025-10-03: 0 contributions</title></rect>
<rect x="195" y="172" width="10" height="10" rx="2" fill="#252525"><title>2025-10-04: 0 contributions</title></rect>
<rect x="208" y="94" width="10" height="10" rx="2" fill="#252525"><title>2025-10-05: 0 contributions</title></rect>
<rect x="208" y="107" width="10" height="10" rx="2" fill="#252525"><title>2025-10-06: 0 contributions</title></rect>
<rect x="208" y="120" width="10" height="10" rx="2" fill="#252525"><title>2025-10-07: 0 contributions</title></rect>
<rect x="208" y="133" width="10" height="10" rx="2" fill="#294149"><title>2025-10-08: 9 contributions</title></rect>
<rect x="208" y="146" width="10" height="10" rx="2" fill="#294149"><title>2025-10-09: 12 contributions</title></rect>
<rect x="208" y="159" width="10" height="10" rx="2" fill="#252525"><title>2025-10-10: 0 contributions</title></rect>
<rect x="208" y="172" width="10" height="10" rx="2" fill="#252525"><title>2025-10-11: 0 contributions</title></rect>
<rect x="221" y="94" width="10" height="10" rx="2" fill="#252525"><title>2025-10-12: 0 contributions</title></rect>
<rect x="221" y="107" width="10" height="10" rx="2" fill="#252525"><title>2025-10-13: 0 contributions</title></rect>
<rect x="221" y="120" width="10" height="10" rx="2" fill="#252525"><title>2025-10-14: 0 contributions</title></rect>
<rect x="221" y="133" width="10" height="10" rx="2" fill="#252525"><title>2025-10-15: 0 contributions</title></rect>
<rect x="221" y="146" width="10" height="10" rx="2" fill="#252525"><title>2025-10-16: 0 contributions</title></rect>
<rect x="221" y="159" width="10" height="10" rx="2" fill="#294149"><title>2025-10-17: 2 contributions</title></rect>
<rect x="221" y="172" width="10" height="10" rx="2" fill="#252525"><title>2025-10-18: 0 contributions</title></rect>
<rect x="234" y="94" width="10" height="10" rx="2" fill="#252525"><title>2025-10-19: 0 contributions</title></rect>
<rect x="234" y="107" width="10" height="10" rx="2" fill="#252525"><title>2025-10-20: 0 contributions</title></rect>
<rect x="234" y="120" width="10" height="10" rx="2" fill="#252525"><title>2025-10-21: 0 contributions</title></rect>
<rect x="234" y="133" width="10" height="10" rx="2" fill="#252525"><title>2025-10-22: 0 contributions</title></rect>
<rect x="234" y="146" width="10" height="10" rx="2" fill="#252525"><title>2025-10-23: 0 contributions</title></rect>
<rect x="234" y="159" width="10" height="10" rx="2" fill="#252525"><title>2025-10-24: 0 contributions</title></rect>
<rect x="234" y="172" width="10" height="10" rx="2" fill="#252525"><title>2025-10-25: 0 contributions</title></rect>
<rect x="247" y="94" width="10" height="10" rx="2" fill="#252525"><title>2025-10-26: 0 contributions</title></rect>
<rect x="247" y="107" width="10" height="10" rx="2" fill="#252525"><title>2025-10-27: 0 contributions</title></rect>
<rect x="247" y="120" width="10" height="10" rx="2" fill="#252525"><title>2025-10-28: 0 contributions</title></rect>
<rect x="247" y="133" width="10" height="10" rx="2" fill="#294149"><title>2025-10-29: 3 contributions</title></rect>
<rect x="247" y="146" width="10" height="10" rx="2" fill="#252525"><title>2025-10-30: 0 contributions</title></rect>
<rect x="247" y="159" width="10" height="10" rx="2" fill="#252525"><title>2025-10-31: 0 contributions</title></rect>
<rect x="247" y="172" width="10" height="10" rx="2" fill="#252525"><title>2025-11-01: 0 contributions</title></rect>
<rect x="260" y="94" width="10" height="10" rx="2" fill="#252525"><title>2025-11-02: 0 contributions</title></rect>
<rect x="260" y="107" width="10" height="10" rx="2" fill="#252525"><title>2025-11-03: 0 contributions</title></rect>
<rect x="260" y="120" width="10" height="10" rx="2" fill="#294149"><title>2025-11-04: 20 contributions</title></rect>
<rect x="260" y="133" width="10" height="10" rx="2" fill="#294149"><title>2025-11-05: 5 contributions</title></rect>
<rect x="260" y="146" width="10" height="10" rx="2" fill="#252525"><title>2025-11-06: 0 contributions</title></rect>
<rect x="260" y="159" width="10" height="10" rx="2" fill="#252525"><title>2025-11-07: 0 contributions</title></rect>
<rect x="260" y="172" width="10" height="10" rx="2" fill="#252525"><title>2025-11-08: 0 contributions</title></rect>
<rect x="273" y="94" width="10" height="10" rx="2" fill="#252525"><title>2025-11-09: 0 contributions</title></rect>
<rect x="273" y="107" width="10" height="10" rx="2" fill="#294149"><title>2025-11-10: 7 contributions</title></rect>
<rect x="273" y="120" width="10" height="10" rx="2" fill="#294149"><title>2025-11-11: 1 contributions</title></rect>
<rect x="273" y="133" width="10" height="10" rx="2" fill="#294149"><title>2025-11-12: 8 contributions</title></rect>
<rect x="273" y="146" width="10" height="10" rx="2" fill="#252525"><title>2025-11-13: 0 contributions</title></rect>
<rect x="273" y="159" width="10" height="10" rx="2" fill="#252525"><title>2025-11-14: 0 contributions</title></rect>
<rect x="273" y="172" width="10" height="10" rx="2" fill="#252525"><title>2025-11-15: 0 contributions</title></rect>
<rect x="286" y="94" width="10" height="10" rx="2" fill="#252525"><title>2025-11-16: 0 contributions</title></rect>
<rect x="286" y="107" width="10" height="10" rx="2" fill="#294149"><title>2025-11-17: 8 contributions</title></rect>
<rect x="286" y="120" width="10" height="10" rx="2" fill="#294149"><title>2025-11-18: 5 contributions</title></rect>
<rect x="286" y="133" width="10" height="10" rx="2" fill="#252525"><title>2025-11-19: 0 contributions</title></rect>
<rect x="286" y="146" width="10" height="10" rx="2" fill="#252525"><title>2025-11-20: 0 contributions</title></rect>
<rect x="286" y="159" width="10" height="10" rx="2" fill="#252525"><title>2025-11-21: 0 contributions</title></rect>
<rect x="286" y="172" width="10" height="10" rx="2" fill="#252525"><title>2025-11-22: 0 contributions</title></rect>
<rect x="299" y="94" width="10" height="10" rx="2" fill="#252525"><title>2025-11-23: 0 contributions</title></rect>
<rect x="299" y="107" width="10" height="10" rx="2" fill="#252525"><title>2025-11-24: 0 contributions</title></rect>
<rect x="299" y="120" width="10" height="10" rx="2" fill="#294149"><title>2025-11-25: 3 contributions</title></rect>
<rect x="299" y="133" width="10" height="10" rx="2" fill="#294149"><title>2025-11-26: 3 contributions</title></rect>
<rect x="299" y="146" width="10" height="10" rx="2" fill="#252525"><title>2025-11-27: 0 contributions</title></rect>
<rect x="299" y="159" width="10" height="10" rx="2" fill="#252525"><title>2025-11-28: 0 contributions</title></rect>
<rect x="299" y="172" width="10" height="10" rx="2" fill="#252525"><title>2025-11-29: 0 contributions</title></rect>
<rect x="312" y="94" width="10" height="10" rx="2" fill="#252525"><title>2025-11-30: 0 contributions</title></rect>
<rect x="312" y="107" width="10" height="10" rx="2" fill="#252525"><title>2025-12-01: 0 contributions</title></rect>
<rect x="312" y="120" width="10" height="10" rx="2" fill="#252525"><title>2025-12-02: 0 contributions</title></rect>
<rect x="312" y="133" width="10" height="10" rx="2" fill="#252525"><title>2025-12-03: 0 contributions</title></rect>
<rect x="312" y="146" width="10" height="10" rx="2" fill="#252525"><title>2025-12-04: 0 contributions</title></rect>
<rect x="312" y="159" width="10" height="10" rx="2" fill="#252525"><title>2025-12-05: 0 contributions</title></rect>
<rect x="312" y="172" width="10" height="10" rx="2" fill="#252525"><title>2025-12-06: 0 contributions</title></rect>
<rect x="325" y="94" width="10" height="10" rx="2" fill="#252525"><title>2025-12-07: 0 contributions</title></rect>
<rect x="325" y="107" width="10" height="10" rx="2" fill="#252525"><title>2025-12-08: 0 contributions</title></rect>
<rect x="325" y="120" width="10" height="10" rx="2" fill="#252525"><title>2025-12-09: 0 contributions</title></rect>
<rect x="325" y="133" width="10" height="10" rx="2" fill="#252525"><title>2025-12-10: 0 contributions</title></rect>
<rect x="325" y="146" width="10" height="10" rx="2" fill="#252525"><title>2025-12-11: 0 contributions</title></rect>
<rect x="325" y="159" width="10" height="10" rx="2" fill="#252525"><title>2025-12-12: 0 contributions</title></rect>
<rect x="325" y="172" width="10" height="10" rx="2" fill="#252525"><title>2025-12-13: 0 contributions</title></rect>
<rect x="338" y="94" width="10" height="10" rx="2" fill="#252525"><title>2025-12-14: 0 contributions</title></rect>
<rect x="338" y="107" width="10" height="10" rx="2" fill="#252525"><title>2025-12-15: 0 contributions</title></rect>
<rect x="338" y="120" width="10" height="10" rx="2" fill="#252525"><title>2025-12-16: 0 contributions</title></rect>
<rect x="338" y="133" width="10" height="10" rx="2" fill="#294149"><title>2025-12-17: 7 contributions</title></rect>
<rect x="338" y="146" width="10" height="10" rx="2" fill="#252525"><title>2025-12-18: 0 contributions</title></rect>
<rect x="338" y="159" width="10" height="10" rx="2" fill="#252525"><title>2025-12-19: 0 contributions</title></rect>
<rect x="338" y="172" width="10" height="10" rx="2" fill="#252525"><title>2025-12-20: 0 contributions</title></rect>
<rect x="351" y="94" width="10" height="10" rx="2" fill="#252525"><title>2025-12-21: 0 contributions</title></rect>
<rect x="351" y="107" width="10" height="10" rx="2" fill="#252525"><title>2025-12-22: 0 contributions</title></rect>
<rect x="351" y="120" width="10" height="10" rx="2" fill="#252525"><title>2025-12-23: 0 contributions</title></rect>
<rect x="351" y="133" width="10" height="10" rx="2" fill="#252525"><title>2025-12-24: 0 contributions</title></rect>
<rect x="351" y="146" width="10" height="10" rx="2" fill="#252525"><title>2025-12-25: 0 contributions</title></rect>
<rect x="351" y="159" width="10" height="10" rx="2" fill="#252525"><title>2025-12-26: 0 contributions</title></rect>
<rect x="351" y="172" width="10" height="10" rx="2" fill="#252525"><title>2025-12-27: 0 contributions</title></rect>
<rect x="364" y="94" width="10" height="10" rx="2" fill="#252525"><title>2025-12-28: 0 contributions</title></rect>
<rect x="364" y="107" width="10" height="10" rx="2" fill="#252525"><title>2025-12-29: 0 contributions</title></rect>
<rect x="364" y="120" width="10" height="10" rx="2" fill="#252525"><title>2025-12-30: 0 contributions</title></rect>
<rect x="364" y="133" width="10" height="10" rx="2" fill="#252525"><title>2025-12-31: 0 contributions</title></rect>
<rect x="364" y="146" width="10" height="10" rx="2" fill="#252525"><title>2026-01-01: 0 contributions</title></rect>
<rect x="364" y="159" width="10" height="10" rx="2" fill="#252525"><title>2026-01-02: 0 contributions</title></rect>
<rect x="364" y="172" width="10" height="10" rx="2" fill="#252525"><title>2026-01-03: 0 contributions</title></rect>
<rect x="377" y="94" width="10" height="10" rx="2" fill="#252525"><title>2026-01-04: 0 contributions</title></rect>
<rect x="377" y="107" width="10" height="10" rx="2" fill="#252525"><title>2026-01-05: 0 contributions</title></rect>
<rect x="377" y="120" width="10" height="10" rx="2" fill="#252525"><title>2026-01-06: 0 contributions</title></rect>
<rect x="377" y="133" width="10" height="10" rx="2" fill="#252525"><title>2026-01-07: 0 contributions</title></rect>
<rect x="377" y="146" width="10" height="10" rx="2" fill="#252525"><title>2026-01-08: 0 contributions</title></rect>
<rect x="377" y="159" width="10" height="10" rx="2" fill="#252525"><title>2026-01-09: 0 contributions</title></rect>
<rect x="377" y="172" width="10" height="10" rx="2" fill="#252525"><title>2026-01-10: 0 contributions</title></rect>
<rect x="390" y="94" width="10" height="10" rx="2" fill="#252525"><title>2026-01-11: 0 contributions</title></rect>
<rect x="390" y="107" width="10" height="10" rx="2" fill="#252525"><title>2026-01-12: 0 contributions</title></rect>
<rect x="390" y="120" width="10" height="10" rx="2" fill="#294149"><title>2026-01-13: 2 contributions</title></rect>
<rect x="390" y="133" width="10" height="10" rx="2" fill="#252525"><title>2026-01-14: 0 contributions</title></rect>
<rect x="390" y="146" width="10" height="10" rx="2" fill="#252525"><title>2026-01-15: 0 contributions</title></rect>
<rect x="390" y="159" width="10" height="10" rx="2" fill="#252525"><title>2026-01-16: 0 contributions</title></rect>
<rect x="390" y="172" width="10" height="10" rx="2" fill="#252525"><title>2026-01-17: 0 contributions</title></rect>
<rect x="403" y="94" width="10" height="10" rx="2" fill="#252525"><title>2026-01-18: 0 contributions</title></rect>
<rect x="403" y="107" width="10" height="10" rx="2" fill="#252525"><title>2026-01-19: 0 contributions</title></rect>
<rect x="403" y="120" width="10" height="10" rx="2" fill="#252525"><title>2026-01-20: 0 contributions</title></rect>
<rect x="403" y="133" width="10" height="10" rx="2" fill="#252525"><title>2026-01-21: 0 contributions</title></rect>
<rect x="403" y="146" width="10" height="10" rx="2" fill="#252525"><title>2026-01-22: 0 contributions</title></rect>
<rect x="403" y="159" width="10" height="10" rx="2" fill="#252525"><title>2026-01-23: 0 contributions</title></rect>
<rect x="403" y="172" width="10" height="10" rx="2" fill="#252525"><title>2026-01-24: 0 contributions</title></rect>
<rect x="416" y="94" width="10" height="10" rx="2" fill="#252525"><title>2026-01-25: 0 contributions</title></rect>
<rect x="416" y="107" width="10" height="10" rx="2" fill="#294149"><title>2026-01-26: 1 contributions</title></rect>
<rect x="416" y="120" width="10" height="10" rx="2" fill="#294149"><title>2026-01-27: 4 contributions</title></rect>
<rect x="416" y="133" width="10" height="10" rx="2" fill="#252525"><title>2026-01-28: 0 contributions</title></rect>
<rect x="416" y="146" width="10" height="10" rx="2" fill="#252525"><title>2026-01-29: 0 contributions</title></rect>
<rect x="416" y="159" width="10" height="10" rx="2" fill="#252525"><title>2026-01-30: 0 contributions</title></rect>
<rect x="416" y="172" width="10" height="10" rx="2" fill="#252525"><title>2026-01-31: 0 contributions</title></rect>
<rect x="429" y="94" width="10" height="10" rx="2" fill="#252525"><title>2026-02-01: 0 contributions</title></rect>
<rect x="429" y="107" width="10" height="10" rx="2" fill="#294149"><title>2026-02-02: 1 contributions</title></rect>
<rect x="429" y="120" width="10" height="10" rx="2" fill="#252525"><title>2026-02-03: 0 contributions</title></rect>
<rect x="429" y="133" width="10" height="10" rx="2" fill="#252525"><title>2026-02-04: 0 contributions</title></rect>
<rect x="429" y="146" width="10" height="10" rx="2" fill="#294149"><title>2026-02-05: 6 contributions</title></rect>
<rect x="429" y="159" width="10" height="10" rx="2" fill="#294149"><title>2026-02-06: 4 contributions</title></rect>
<rect x="429" y="172" width="10" height="10" rx="2" fill="#252525"><title>2026-02-07: 0 contributions</title></rect>
<rect x="442" y="94" width="10" height="10" rx="2" fill="#252525"><title>2026-02-08: 0 contributions</title></rect>
<rect x="442" y="107" width="10" height="10" rx="2" fill="#294149"><title>2026-02-09: 5 contributions</title></rect>
<rect x="442" y="120" width="10" height="10" rx="2" fill="#294149"><title>2026-02-10: 3 contributions</title></rect>
<rect x="442" y="133" width="10" height="10" rx="2" fill="#294149"><title>2026-02-11: 11 contributions</title></rect>
<rect x="442" y="146" width="10" height="10" rx="2" fill="#294149"><title>2026-02-12: 5 contributions</title></rect>
<rect x="442" y="159" width="10" height="10" rx="2" fill="#294149"><title>2026-02-13: 5 contributions</title></rect>
<rect x="442" y="172" width="10" height="10" rx="2" fill="#252525"><title>2026-02-14: 0 contributions</title></rect>
<rect x="455" y="94" width="10" height="10" rx="2" fill="#252525"><title>2026-02-15: 0 contributions</title></rect>
<rect x="455" y="107" width="10" height="10" rx="2" fill="#294149"><title>2026-02-16: 12 contributions</title></rect>
<rect x="455" y="120" width="10" height="10" rx="2" fill="#294149"><title>2026-02-17: 11 contributions</title></rect>
<rect x="455" y="133" width="10" height="10" rx="2" fill="#252525"><title>2026-02-18: 0 contributions</title></rect>
<rect x="455" y="146" width="10" height="10" rx="2" fill="#252525"><title>2026-02-19: 0 contributions</title></rect>
<rect x="455" y="159" width="10" height="10" rx="2" fill="#252525"><title>2026-02-20: 0 contributions</title></rect>
<rect x="455" y="172" width="10" height="10" rx="2" fill="#252525"><title>2026-02-21: 0 contributions</title></rect>
<rect x="468" y="94" width="10" height="10" rx="2" fill="#252525"><title>2026-02-22: 0 contributions</title></rect>
<rect x="468" y="107" width="10" height="10" rx="2" fill="#294149"><title>2026-02-23: 9 contributions</title></rect>
<rect x="468" y="120" width="10" height="10" rx="2" fill="#294149"><title>2026-02-24: 12 contributions</title></rect>
<rect x="468" y="133" width="10" height="10" rx="2" fill="#294149"><title>2026-02-25: 12 contributions</title></rect>
<rect x="468" y="146" width="10" height="10" rx="2" fill="#294149"><title>2026-02-26: 2 contributions</title></rect>
<rect x="468" y="159" width="10" height="10" rx="2" fill="#294149"><title>2026-02-27: 2 contributions</title></rect>
<rect x="468" y="172" width="10" height="10" rx="2" fill="#252525"><title>2026-02-28: 0 contributions</title></rect>
<rect x="481" y="94" width="10" height="10" rx="2" fill="#294149"><title>2026-03-01: 1 contributions</title></rect>
<rect x="481" y="107" width="10" height="10" rx="2" fill="#294149"><title>2026-03-02: 2 contributions</title></rect>
<rect x="481" y="120" width="10" height="10" rx="2" fill="#294149"><title>2026-03-03: 6 contributions</title></rect>
<rect x="481" y="133" width="10" height="10" rx="2" fill="#252525"><title>2026-03-04: 0 contributions</title></rect>
<rect x="481" y="146" width="10" height="10" rx="2" fill="#252525"><title>2026-03-05: 0 contributions</title></rect>
<rect x="481" y="159" width="10" height="10" rx="2" fill="#294149"><title>2026-03-06: 4 contributions</title></rect>
<rect x="481" y="172" width="10" height="10" rx="2" fill="#294149"><title>2026-03-07: 1 contributions</title></rect>
<rect x="494" y="94" width="10" height="10" rx="2" fill="#294149"><title>2026-03-08: 3 contributions</title></rect>
<rect x="494" y="107" width="10" height="10" rx="2" fill="#294149"><title>2026-03-09: 4 contributions</title></rect>
<rect x="494" y="120" width="10" height="10" rx="2" fill="#252525"><title>2026-03-10: 0 contributions</title></rect>
<rect x="494" y="133" width="10" height="10" rx="2" fill="#294149"><title>2026-03-11: 2 contributions</title></rect>
<rect x="494" y="146" width="10" height="10" rx="2" fill="#294149"><title>2026-03-12: 6 contributions</title></rect>
<rect x="494" y="159" width="10" height="10" rx="2" fill="#252525"><title>2026-03-13: 0 contributions</title></rect>
<rect x="494" y="172" width="10" height="10" rx="2" fill="#252525"><title>2026-03-14: 0 contributions</title></rect>
<rect x="507" y="94" width="10" height="10" rx="2" fill="#294149"><title>2026-03-15: 2 contributions</title></rect>
<rect x="507" y="107" width="10" height="10" rx="2" fill="#252525"><title>2026-03-16: 0 contributions</title></rect>
<rect x="507" y="120" width="10" height="10" rx="2" fill="#294149"><title>2026-03-17: 2 contributions</title></rect>
<rect x="507" y="133" width="10" height="10" rx="2" fill="#294149"><title>2026-03-18: 4 contributions</title></rect>
<rect x="507" y="146" width="10" height="10" rx="2" fill="#252525"><title>2026-03-19: 0 contributions</title></rect>
<rect x="507" y="159" width="10" height="10" rx="2" fill="#294149"><title>2026-03-20: 3 contributions</title></rect>
<rect x="507" y="172" width="10" height="10" rx="2" fill="#252525"><title>2026-03-21: 0 contributions</title></rect>
<rect x="520" y="94" width="10" height="10" rx="2" fill="#294149"><title>2026-03-22: 1 contributions</title></rect>
<rect x="520" y="107" width="10" height="10" rx="2" fill="#252525"><title>2026-03-23: 0 contributions</title></rect>
<rect x="520" y="120" width="10" height="10" rx="2" fill="#294149"><title>2026-03-24: 2 contributions</title></rect>
<rect x="520" y="133" width="10" height="10" rx="2" fill="#294149"><title>2026-03-25: 2 contributions</title></rect>
<rect x="520" y="146" width="10" height="10" rx="2" fill="#252525"><title>2026-03-26: 0 contributions</title></rect>
<rect x="520" y="159" width="10" height="10" rx="2" fill="#294149"><title>2026-03-27: 1 contributions</title></rect>
<rect x="520" y="172" width="10" height="10" rx="2" fill="#252525"><title>2026-03-28: 0 contributions</title></rect>
<rect x="533" y="94" width="10" height="10" rx="2" fill="#252525"><title>2026-03-29: 0 contributions</title></rect>
<rect x="533" y="107" width="10" height="10" rx="2" fill="#252525"><title>2026-03-30: 0 contributions</title></rect>
<rect x="533" y="120" width="10" height="10" rx="2" fill="#252525"><title>2026-03-31: 0 contributions</title></rect>
<rect x="533" y="133" width="10" height="10" rx="2" fill="#294149"><title>2026-04-01: 1 contributions</title></rect>
<rect x="533" y="146" width="10" height="10" rx="2" fill="#294149"><title>2026-04-02: 2 contributions</title></rect>
<rect x="533" y="159" width="10" height="10" rx="2" fill="#294149"><title>2026-04-03: 1 contributions</title></rect>
<rect x="533" y="172" width="10" height="10" rx="2" fill="#294149"><title>2026-04-04: 1 contributions</title></rect>
<rect x="546" y="94" width="10" height="10" rx="2" fill="#252525"><title>2026-04-05: 0 contributions</title></rect>
<rect x="546" y="107" width="10" height="10" rx="2" fill="#252525"><title>2026-04-06: 0 contributions</title></rect>
<rect x="546" y="120" width="10" height="10" rx="2" fill="#294149"><title>2026-04-07: 2 contributions</title></rect>
<rect x="546" y="133" width="10" height="10" rx="2" fill="#252525"><title>2026-04-08: 0 contributions</title></rect>
<rect x="546" y="146" width="10" height="10" rx="2" fill="#294149"><title>2026-04-09: 1 contributions</title></rect>
<rect x="546" y="159" width="10" height="10" rx="2" fill="#294149"><title>2026-04-10: 1 contributions</title></rect>
<rect x="546" y="172" width="10" height="10" rx="2" fill="#252525"><title>2026-04-11: 0 contributions</title></rect>
<rect x="559" y="94" width="10" height="10" rx="2" fill="#252525"><title>2026-04-12: 0 contributions</title></rect>
<rect x="559" y="107" width="10" height="10" rx="2" fill="#294149"><title>2026-04-13: 2 contributions</title></rect>
<rect x="559" y="120" width="10" height="10" rx="2" fill="#252525"><title>2026-04-14: 0 contributions</title></rect>
<rect x="559" y="133" width="10" height="10" rx="2" fill="#294149"><title>2026-04-15: 2 contributions</title></rect>
<rect x="559" y="146" width="10" height="10" rx="2" fill="#252525"><title>2026-04-16: 0 contributions</title></rect>
<rect x="559" y="159" width="10" height="10" rx="2" fill="#252525"><title>2026-04-17: 0 contributions</title></rect>
<rect x="559" y="172" width="10" height="10" rx="2" fill="#252525"><title>2026-04-18: 0 contributions</title></rect>
<rect x="572" y="94" width="10" height="10" rx="2" fill="#252525"><title>2026-04-19: 0 contributions</title></rect>
<rect x="572" y="107" width="10" height="10" rx="2" fill="#252525"><title>2026-04-20: 0 contributions</title></rect>
<rect x="572" y="120" width="10" height="10" rx="2" fill="#252525"><title>2026-04-21: 0 contributions</title></rect>
<rect x="572" y="133" width="10" height="10" rx="2" fill="#252525"><title>2026-04-22: 0 contributions</title></rect>
<rect x="572" y="146" width="10" height="10" rx="2" fill="#252525"><title>2026-04-23: 0 contributions</title></rect>
<rect x="572" y="159" width="10" height="10" rx="2" fill="#252525"><title>2026-04-24: 0 contributions</title></rect>
<rect x="572" y="172" width="10" height="10" rx="2" fill="#252525"><title>2026-04-25: 0 contributions</title></rect>
<rect x="585" y="94" width="10" height="10" rx="2" fill="#252525"><title>2026-04-26: 0 contributions</title></rect>
<rect x="585" y="107" width="10" height="10" rx="2" fill="#294149"><title>2026-04-27: 1 contributions</title></rect>
<rect x="585" y="120" width="10" height="10" rx="2" fill="#294149"><title>2026-04-28: 2 contributions</title></rect>
<rect x="585" y="133" width="10" height="10" rx="2" fill="#252525"><title>2026-04-29: 0 contributions</title></rect>
<rect x="585" y="146" width="10" height="10" rx="2" fill="#252525"><title>2026-04-30: 0 contributions</title></rect>
<rect x="585" y="159" width="10" height="10" rx="2" fill="#294149"><title>2026-05-01: 2 contributions</title></rect>
<rect x="585" y="172" width="10" height="10" rx="2" fill="#252525"><title>2026-05-02: 0 contributions</title></rect>
<rect x="598" y="94" width="10" height="10" rx="2" fill="#294149"><title>2026-05-03: 2 contributions</title></rect>
<rect x="598" y="107" width="10" height="10" rx="2" fill="#294149"><title>2026-05-04: 6 contributions</title></rect>
<rect x="598" y="120" width="10" height="10" rx="2" fill="#294149"><title>2026-05-05: 3 contributions</title></rect>
<rect x="598" y="133" width="10" height="10" rx="2" fill="#294149"><title>2026-05-06: 4 contributions</title></rect>
<rect x="598" y="146" width="10" height="10" rx="2" fill="#252525"><title>2026-05-07: 0 contributions</title></rect>
<rect x="598" y="159" width="10" height="10" rx="2" fill="#252525"><title>2026-05-08: 0 contributions</title></rect>
<rect x="598" y="172" width="10" height="10" rx="2" fill="#252525"><title>2026-05-09: 0 contributions</title></rect>
<rect x="611" y="94" width="10" height="10" rx="2" fill="#294149"><title>2026-05-10: 1 contributions</title></rect>
<rect x="611" y="107" width="10" height="10" rx="2" fill="#294149"><title>2026-05-11: 4 contributions</title></rect>
<rect x="611" y="120" width="10" height="10" rx="2" fill="#252525"><title>2026-05-12: 0 contributions</title></rect>
<rect x="611" y="133" width="10" height="10" rx="2" fill="#252525"><title>2026-05-13: 0 contributions</title></rect>
<rect x="611" y="146" width="10" height="10" rx="2" fill="#252525"><title>2026-05-14: 0 contributions</title></rect>
<rect x="611" y="159" width="10" height="10" rx="2" fill="#252525"><title>2026-05-15: 0 contributions</title></rect>
<rect x="611" y="172" width="10" height="10" rx="2" fill="#252525"><title>2026-05-16: 0 contributions</title></rect>
<rect x="624" y="94" width="10" height="10" rx="2" fill="#294149"><title>2026-05-17: 2 contributions</title></rect>
<rect x="624" y="107" width="10" height="10" rx="2" fill="#252525"><title>2026-05-18: 0 contributions</title></rect>
<rect x="624" y="120" width="10" height="10" rx="2" fill="#252525"><title>2026-05-19: 0 contributions</title></rect>
<rect x="624" y="133" width="10" height="10" rx="2" fill="#252525"><title>2026-05-20: 0 contributions</title></rect>
<rect x="624" y="146" width="10" height="10" rx="2" fill="#294149"><title>2026-05-21: 3 contributions</title></rect>
<rect x="624" y="159" width="10" height="10" rx="2" fill="#252525"><title>2026-05-22: 0 contributions</title></rect>
<rect x="624" y="172" width="10" height="10" rx="2" fill="#252525"><title>2026-05-23: 0 contributions</title></rect>
<rect x="637" y="94" width="10" height="10" rx="2" fill="#252525"><title>2026-05-24: 0 contributions</title></rect>
<rect x="637" y="107" width="10" height="10" rx="2" fill="#252525"><title>2026-05-25: 0 contributions</title></rect>
<rect x="637" y="120" width="10" height="10" rx="2" fill="#294149"><title>2026-05-26: 6 contributions</title></rect>
<rect x="637" y="133" width="10" height="10" rx="2" fill="#294149"><title>2026-05-27: 1 contributions</title></rect>
<rect x="637" y="146" width="10" height="10" rx="2" fill="#294149"><title>2026-05-28: 4 contributions</title></rect>
<rect x="637" y="159" width="10" height="10" rx="2" fill="#252525"><title>2026-05-29: 0 contributions</title></rect>
<rect x="637" y="172" width="10" height="10" rx="2" fill="#252525"><title>2026-05-30: 0 contributions</title></rect>
<rect x="650" y="94" width="10" height="10" rx="2" fill="#252525"><title>2026-05-31: 0 contributions</title></rect>
<rect x="650" y="107" width="10" height="10" rx="2" fill="#252525"><title>2026-06-01: 0 contributions</title></rect>
<rect x="650" y="120" width="10" height="10" rx="2" fill="#252525"><title>2026-06-02: 0 contributions</title></rect>
<rect x="650" y="133" width="10" height="10" rx="2" fill="#252525"><title>2026-06-03: 0 contributions</title></rect>
<rect x="650" y="146" width="10" height="10" rx="2" fill="#252525"><title>2026-06-04: 0 contributions</title></rect>
<rect x="650" y="159" width="10" height="10" rx="2" fill="#252525"><title>2026-06-05: 0 contributions</title></rect>
<rect x="650" y="172" width="10" height="10" rx="2" fill="#252525"><title>2026-06-06: 0 contributions</title></rect>
<rect x="663" y="94" width="10" height="10" rx="2" fill="#252525"><title>2026-06-07: 0 contributions</title></rect>
<rect x="663" y="107" width="10" height="10" rx="2" fill="#252525"><title>2026-06-08: 0 contributions</title></rect>
<rect x="663" y="120" width="10" height="10" rx="2" fill="#252525"><title>2026-06-09: 0 contributions</title></rect>
<rect x="663" y="133" width="10" height="10" rx="2" fill="#252525"><title>2026-06-10: 0 contributions</title></rect>
<rect x="663" y="146" width="10" height="10" rx="2" fill="#252525"><title>2026-06-11: 0 contributions</title></rect>
<rect x="663" y="159" width="10" height="10" rx="2" fill="#252525"><title>2026-06-12: 0 contributions</title></rect>
<rect x="663" y="172" width="10" height="10" rx="2" fill="#252525"><title>2026-06-13: 0 contributions</title></rect>
<rect x="676" y="94" width="10" height="10" rx="2" fill="#252525"><title>2026-06-14: 0 contributions</title></rect>
<rect x="676" y="107" width="10" height="10" rx="2" fill="#252525"><title>2026-06-15: 0 contributions</title></rect>
<rect x="676" y="120" width="10" height="10" rx="2" fill="#252525"><title>2026-06-16: 0 contributions</title></rect>
<rect x="676" y="133" width="10" height="10" rx="2" fill="#252525"><title>2026-06-17: 0 contributions</title></rect>
<rect x="676" y="146" width="10" height="10" rx="2" fill="#252525"><title>2026-06-18: 0 contributions</title></rect>
<rect x="676" y="159" width="10" height="10" rx="2" fill="#252525"><title>2026-06-19: 0 contributions</title></rect>
<rect x="676" y="172" width="10" height="10" rx="2" fill="#252525"><title>2026-06-20: 0 contributions</title></rect>
<rect x="689" y="94" width="10" height="10" rx="2" fill="#252525"><title>2026-06-21: 0 contributions</title></rect>
<rect x="689" y="107" width="10" height="10" rx="2" fill="#252525"><title>2026-06-22: 0 contributions</title></rect>
<rect x="689" y="120" width="10" height="10" rx="2" fill="#252525"><title>2026-06-23: 0 contributions</title></rect>
<rect x="689" y="133" width="10" height="10" rx="2" fill="#252525"><title>2026-06-24: 0 contributions</title></rect>
<rect x="689" y="146" width="10" height="10" rx="2" fill="#252525"><title>2026-06-25: 0 contributions</title></rect>
<rect x="689" y="159" width="10" height="10" rx="2" fill="#252525"><title>2026-06-26: 0 contributions</title></rect>
<rect x="689" y="172" width="10" height="10" rx="2" fill="#252525"><title>2026-06-27: 0 contributions</title></rect>
<rect x="702" y="94" width="10" height="10" rx="2" fill="#252525"><title>2026-06-28: 0 contributions</title></rect>
<rect x="702" y="107" width="10" height="10" rx="2" fill="#252525"><title>2026-06-29: 0 contributions</title></rect>
<rect x="702" y="120" width="10" height="10" rx="2" fill="#252525"><title>2026-06-30: 0 contributions</title></rect>
<rect x="702" y="133" width="10" height="10" rx="2" fill="#252525"><title>2026-07-01: 0 contributions</title></rect>
<rect x="702" y="146" width="10" height="10" rx="2" fill="#252525"><title>2026-07-02: 0 contributions</title></rect>
<rect x="702" y="159" width="10" height="10" rx="2" fill="#252525"><title>2026-07-03: 0 contributions</title></rect>
<rect x="702" y="172" width="10" height="10" rx="2" fill="#252525"><title>2026-07-04: 0 contributions</title></rect>
<rect x="715" y="94" width="10" height="10" rx="2" fill="#252525"><title>2026-07-05: 0 contributions</title></rect>
<rect x="715" y="107" width="10" height="10" rx="2" fill="#252525"><title>2026-07-06: 0 contributions</title></rect>
<rect x="715" y="120" width="10" height="10" rx="2" fill="#294149"><title>2026-07-07: 1 contributions</title></rect>
<rect x="715" y="133" width="10" height="10" rx="2" fill="#252525"><title>2026-07-08: 0 contributions</title></rect>
<rect x="715" y="146" width="10" height="10" rx="2" fill="#252525"><title>2026-07-09: 0 contributions</title></rect>
<rect x="715" y="159" width="10" height="10" rx="2" fill="#252525"><title>2026-07-10: 0 contributions</title></rect>
<rect x="715" y="172" width="10" height="10" rx="2" fill="#252525"><title>2026-07-11: 0 contributions</title></rect>
<rect x="728" y="94" width="10" height="10" rx="2" fill="#294149"><title>2026-07-12: 1 contributions</title></rect>
<rect x="728" y="107" width="10" height="10" rx="2" fill="#252525"><title>2026-07-13: 0 contributions</title></rect>
<rect x="728" y="120" width="10" height="10" rx="2" fill="#252525"><title>2026-07-14: 0 contributions</title></rect>
<rect x="728" y="133" width="10" height="10" rx="2" fill="#252525"><title>2026-07-15: 0 contributions</title></rect>
<rect x="728" y="146" width="10" height="10" rx="2" fill="#252525"><title>2026-07-16: 0 contributions</title></rect>
<rect x="728" y="159" width="10" height="10" rx="2" fill="#252525"><title>2026-07-17: 0 contributions</title></rect>
<rect x="728" y="172" width="10" height="10" rx="2" fill="#252525"><title>2026-07-18: 0 contributions</title></rect>
<rect x="741" y="94" width="10" height="10" rx="2" fill="#252525"><title>2026-07-19: 0 contributions</title></rect>
<rect x="741" y="107" width="10" height="10" rx="2" fill="#252525"><title>2026-07-20: 0 contributions</title></rect>
<rect x="741" y="120" width="10" height="10" rx="2" fill="#294149"><title>2026-07-21: 5 contributions</title></rect>
<rect x="741" y="133" width="10" height="10" rx="2" fill="#294149"><title>2026-07-22: 31 contributions</title></rect>
<rect x="741" y="146" width="10" height="10" rx="2" fill="#294149"><title>2026-07-23: 35 contributions</title></rect>
<rect x="741" y="159" width="10" height="10" rx="2" fill="#005f50"><title>2026-07-24: 87 contributions</title></rect>
<rect x="741" y="172" width="10" height="10" rx="2" fill="#294149"><title>2026-07-25: 2 contributions</title></rect>
<rect x="754" y="94" width="10" height="10" rx="2" fill="#00e0e0"><title>2026-07-26: 224 contributions</title></rect>
<rect x="754" y="107" width="10" height="10" rx="2" fill="#00e0e0"><title>2026-07-27: 186 contributions</title></rect>
<rect x="754" y="120" width="10" height="10" rx="2" fill="#294149"><title>2026-07-28: 58 contributions</title></rect>
<rect x="754" y="133" width="10" height="10" rx="2" fill="#005f50"><title>2026-07-29: 77 contributions</title></rect>
<rect x="754" y="146" width="10" height="10" rx="2" fill="#005f50"><title>2026-07-30: 87 contributions</title></rect>
<rect x="754" y="159" width="10" height="10" rx="2" fill="#00e0e0"><title>2026-07-31: 190 contributions</title></rect>
<rect x="754" y="172" width="10" height="10" rx="2" fill="#00a8a8"><title>2026-08-01: 121 contributions</title></rect>
<rect x="767" y="94" width="10" height="10" rx="2" fill="#005f50"><title>2026-08-02: 100 contributions</title></rect>
<rect x="767" y="107" width="10" height="10" rx="2" fill="#005f50"><title>2026-08-03: 104 contributions</title></rect>
<rect x="767" y="120" width="10" height="10" rx="2" fill="#00e0e0"><title>2026-08-04: 233 contributions</title></rect>
<rect x="767" y="133" width="10" height="10" rx="2" fill="#00a8a8"><title>2026-08-05: 125 contributions</title></rect>
<rect x="767" y="146" width="10" height="10" rx="2" fill="#00a8a8"><title>2026-08-06: 140 contributions</title></rect>
<rect x="767" y="159" width="10" height="10" rx="2" fill="#005f50"><title>2026-08-07: 76 contributions</title></rect>
<rect x="767" y="172" width="10" height="10" rx="2" fill="#294149"><title>2026-08-08: 5 contributions</title></rect>
    <rect x="73" y="89" width="36" height="98" rx="8" fill="url(#scan)" filter="url(#glow)">
      <animate attributeName="x" from="73" to="780" dur="7s" repeatCount="indefinite"/>
    </rect>
    <g transform="translate(776 185)">
      <path d="M0 13 L5 4 L10 10 L19 10 L24 4 L29 13 L26 27 L3 27 Z" fill="#121212" stroke="#c2a8ff" stroke-width="2"/>
      <circle cx="9" cy="18" r="2" fill="#00e0e0"/>
      <circle cx="20" cy="18" r="2" fill="#00e0e0">
        <animate attributeName="r" values="2;2;0.2;2;2" dur="4s" repeatCount="indefinite"/>
      </circle>
      <path d="M12 23 Q15 25 18 23" fill="none" stroke="#00e0e0" stroke-width="1.5"/>
    </g>
    <text class="small" x="24" y="210">GitHub GraphQL API · generated 2026-08-08</text>
  
</svg>